<svg xmlns="http://www.w3.org/2000/svg" viewBox="-1 -3 26 44"><rect x="-1" y="-3" width="26" height="44" fill="#2b2b2b"/><path d="M 0.0 0.0 L 24.0 0.0 L 24.0 40.0 L 0.0 40.0 z" fill="none" stroke="rgb(119,119,119)" stroke-width="0.1"/><path d="M 0.0 -2.0 L 24.0 -2.0 L 24.0 0.0 L 0.0 0.0 z" fill="none" stroke="rgb(119,119,119)" stroke-width="0.1"/><path d="M 0.0 6.0 L 24.0 6.0" fill="none" stroke="rgb(255,255,255)" stroke-width="0.1"/><path d="M 0.0 0.0 L 8.0 0.0 L 8.0 6.0 L 0.0 6.0 z" fill="none" stroke="rgb(255,255,255)" stroke-width="0.1"/><path d="M 8.0 0.0 L 16.0 0.0 L 16.0 6.0 L 8.0 6.0 z" fill="none" stroke="rgb(255,255,255)" stroke-width="0.1"/><text x="9.0" y="3.090406" font-size="1.7712178" font-family="'Open Sans', sans-serif" fill="rgb(255,255,255)">About</text><text x="1.0" y="3.0882354" font-size="1.7647061" font-family="'Open Sans', sans-serif" fill="rgb(255,255,255)">Home</text><text x="16.0" y="2.9705882" font-size="1.4117647" font-family="'Open Sans', sans-serif" fill="rgb(255,255,255)">Categories</text><path d="M 5.0 8.0 L 19.0 8.0 L 19.0 20.0 L 5.0 20.0 z" fill="none" stroke="rgb(255,255,255)" stroke-width="0.1"/><path d="M 8.0 16.0 L 15.0 16.0 L 15.0 18.0 L 8.0 18.0 z" fill="none" stroke="rgb(255,255,255)" stroke-width="0.1"/><text x="9.0" y="17.01447" font-size="1.5434082" font-family="'Open Sans', sans-serif" fill="rgb(255,255,255)">submit</text><path d="M 6.0 11.0 L 18.0 11.0 L 18.0 13.0 L 6.0 13.0 z" fill="none" stroke="rgb(255,255,255)" stroke-width="0.1"/><text x="8.0" y="11.932433" font-size="1.2972972" font-family="'Open Sans', sans-serif" fill="rgb(255,255,255)">show name</text><path d="M 0.0 25.0 L 24.0 25.0" fill="none" stroke="rgb(255,255,255)" stroke-width="0.1"/><path d="M 0.0 32.0 L 24.0 32.0" fill="none" stroke="rgb(255,255,255)" stroke-width="0.1"/><path d="M 16.0 0.0 L 24.0 0.0" fill="none" stroke="rgb(255,255,255)" stroke-width="0.1"/><text x="3.0" y="28.607595" font-size="1.8227849" font-family="'Open Sans', sans-serif" fill="rgb(255,255,255)">Data transition space</text></svg>